    <svg
      xmlns="http://www.w3.org/2000/svg"
      fillRule="evenodd"
      strokeLinejoin="round"
      strokeMiterlimit="2"
      clipRule="evenodd"
      viewBox="0 0 232 347"
    >
      <g transform="translate(-284.406 -201.592)">
        <path
          fill="#fff"
          d="M181.661 184.406l72.849 145.699H108.811l72.85-145.699z"
          transform="rotate(180 344.125 420.49) scale(1.58675)"
        ></path>
        <circle
          cx="335.175"
          cy="301.888"
          r="115.594"
          fill="#fff"
          transform="translate(64.825 15.298)"
        ></circle>
        <g transform="matrix(.3294 0 0 .3294 400 317.186) translate(-225.579 -173.275)">
          <clipPath id="_clip1">
            <path d="M0 0H451.158V346.551H0z"></path>
          </clipPath>
          <g clipPath="url(#_clip1)">
            <path
              fill="#0053A5"
              d="M129.268 71.688l.696.008 28.002 86.567-56.617.191 27.919-86.766zM4.378 250.965l66.68-.232 15.51-44.39 86.99-.274 15.585 44.291 67.75-.223L162.516 2.976l-66.026.216L4.378 250.965z"
            ></path>
            <g fill="#fff">
              <path d="M127.054 68.72l-29.826 92.743 64.907-.208-29.967-92.544-5.114.009zm2.586 11.78c3.971 12.277 22.117 68.347 24.18 74.796-6.49.008-41.721.116-48.32.149 2.107-6.474 20.195-62.644 24.14-74.945z"></path>
              <path d="M94.36.232L0 254.016l73.222-.24s14.208-40.785 15.535-44.457c3.945 0 78.692-.241 82.646-.274 1.343 3.689 15.585 44.366 15.585 44.366l74.299-.233L164.572 0 94.36.232zm66.051 5.761c1.459 3.755 89.162 233.384 92.138 241.151-7.353 0-57.447.174-61.284.174-1.269-3.655-15.568-44.299-15.568-44.299l-91.268.315s-14.216 40.776-15.493 44.382c-3.78.025-52.895.183-60.289.224 2.917-7.776 88.532-238.009 89.9-241.74 3.829-.025 58.075-.182 61.864-.207z"></path>
            </g>
            <path
              fill="#1156A3"
              d="M43.653 322.006l.099.008 3.78 11.639-7.618.025 3.739-11.672zM26.85 346.154l9.011-.05 2.064-5.944 11.68-.016 2.114 5.918 9.111-.016-12.692-33.241-8.911.016-12.377 33.333zM85.457 312.68l-28.715.092.009 7.444 10.013-.025.108 25.805 8.753-.008-.107-25.822 9.98-.025-.041-7.461zM89.485 345.954l24.356-.099-.017-7.469-15.643.066-.115-25.829-8.746.041.165 33.29zM131.538 321.733l.133.017 3.754 11.639-7.626.016 3.739-11.672zm-16.819 24.122l9.002-.033 2.073-5.944 11.738-.058 2.072 5.944 9.16-.033-12.749-33.216-8.895.025-12.401 33.315zM151.143 345.731l8.24-.008-.099-20.757.107.016 11.754 20.699 9.012-.033-.15-33.274-8.256.033.1 20.484h-.1l-11.738-20.459-9.011.033.141 33.266zM212.527 312.266l-28.781.108.033 7.419 10.031-.042.124 25.847 8.761-.033-.141-25.814 10.007-.049-.034-7.436zM214.575 334.374c.033 8.497 6.855 11.829 14.606 11.804 7.394-.033 14.556-2.777 14.506-11.207-.008-6.001-4.874-8.224-9.748-9.55-4.849-1.376-9.715-1.774-9.748-4.41.008-2.131 2.371-2.819 4.219-2.811 2.711-.033 5.554.97 5.397 4.004l8.77-.033c-.075-7.511-6.789-10.652-13.479-10.644-6.325.025-13.62 2.843-13.595 10.122.025 6.101 5.04 8.223 9.873 9.583 4.799 1.35 9.608 1.848 9.624 4.841-.008 2.395-2.669 3.349-5.372 3.349-3.647.017-6.151-1.244-6.316-5.074l-8.737.026z"
            ></path>
            <g>
              <path
                fill="#E4222F"
                d="M246.522 328.77c.059 9.666 6.027 17.317 16.62 17.292 10.586-.033 16.472-7.717 16.439-17.391-.042-9.649-6.002-17.283-16.58-17.267-10.626.033-16.512 7.718-16.479 17.366zm8.737-.024c-.049-4.94 2.098-9.873 7.768-9.906 5.587-.025 7.809 4.916 7.825 9.831.017 4.966-2.138 9.915-7.734 9.939-5.645-.008-7.842-4.932-7.859-9.864zM284.397 345.3l24.421-.083-.058-7.461-15.626.05-.115-25.797h-8.763l.141 33.291zM313.129 345.192l8.77-.017-.174-33.274-8.746.033.15 33.258zM341.288 321.053l.108.008 3.771 11.622-7.601.033 3.722-11.663zm-16.786 24.122l8.952-.058 2.114-5.96 11.738-.009 2.039 5.944 9.185-.033-12.749-33.208-8.878-.008-12.401 33.332z"
              ></path>
            </g>
            <g>
              <path
                fill="#E4222F"
                d="M312.871 308.312l8.166-.025 3.2-8.687-9.392-.009-1.974 8.721z"
              ></path>
            </g>
            <path
              fill="#ED1B2E"
              d="M207.437 126.589c.34 71.721 45.013 128.778 123.58 128.496 78.635-.266 122.752-57.587 122.428-129.308C453.122 54.015 408.45-3.051 329.824-2.777c-78.576.265-122.727 57.604-122.387 129.366zm65.015-.215c-.174-36.781 15.775-73.603 57.629-73.719 41.953-.149 58.176 36.549 58.341 73.321.174 36.756-15.709 73.528-57.654 73.636-41.87.149-58.142-36.541-58.316-73.238z"
            ></path>
            <g fill="#fff">
              <path d="M236.79 33.108c-20.989 23.584-32.519 56.791-32.345 93.489.166 36.681 11.995 69.823 33.199 93.232 22.813 25.101 55.133 38.372 93.399 38.265 38.289-.142 70.527-13.612 93.05-38.92 21.03-23.534 32.552-56.734 32.387-93.398-.149-36.723-12.004-69.831-33.265-93.265C400.467 7.353 368.113-5.877 329.808-5.72c-38.248.1-70.437 13.52-93.018 38.828zm5.347 182.701c-20.251-22.332-31.458-54.006-31.632-89.22-.166-35.239 10.768-67.029 30.82-89.536C262.712 13.104 293.342.363 329.841.222 366.406.114 397.11 12.69 418.77 36.481c20.252 22.348 31.492 54.056 31.658 89.303.149 35.223-10.801 66.98-30.828 89.436-21.437 24.015-52.025 36.706-88.59 36.822-36.516.134-67.254-12.367-88.873-36.233z"></path>
              <path d="M269.427 126.39c.174 36.988 16.388 76.38 61.359 76.214 44.996-.115 60.87-39.64 60.687-76.611-.158-36.989-16.413-76.446-61.401-76.314-44.962.158-60.812 39.732-60.645 76.711zm6.076-.016c-.149-34.095 14.109-70.553 54.595-70.694 40.577-.124 55.15 36.259 55.324 70.313.149 34.012-14.1 70.477-54.678 70.643-40.494.107-55.076-36.259-55.241-70.262z"></path>
            </g>
            <path
              fill="#FFD521"
              d="M377.622 346.551c18.974-16.91 16.836-13.147 19.016-23.965 2.686-13.446-98.628-72.268-108.344-66.043-9.127 7.328 19.414 26.046 4.651 31.169-34.145-10.229-182.477-51.635-304.897 29.096-1.475-15.576 97.294-100.742 256.171-66.821 1.435 0 2.727-1.335 2.255-2.661-3.176-17.798-35.562-37.137-14.225-52.091 29.096-14.051 219.025 92.569 218.91 125.893-.068 22.299-43.149 20.641-73.537 25.423z"
            ></path>
            <g>
              <path
                fill="#fff"
                d="M230.681 191.894l-.315.132-.174.199c-4.999 3.423-7.958 7.577-8.671 12.202-.108.887-.216 1.749-.199 2.561.049 7.909 5.803 15.618 11.364 23.178 3.955 5.264 7.9 10.718 9.591 15.667-53.542-10.983-105.061-9.831-153.149 3.498-49.77 13.86-78.717 36.101-88.863 44.929-6.217 5.504-16.587 15.742-15.949 22.887l.522 6.192 5.222-3.416c51.28-33.838 112.97-50.011 183.464-48.096 26.858.738 69.268 4.692 118.333 19.456l1.186.348 1.136-.398c3.382-1.152 5.529-3.125 6.391-5.753a8.03 8.03 0 00.398-2.636c-.008-4.244-2.992-8.787-5.927-13.164-2.122-3.075-4.791-7.121-4.808-9.168 0-.306.059-.564.158-.762 7.652-.638 50.383 20.865 80.59 42.293 20.45 14.432 21.901 19.381 21.951 19.878-.042.298-.357 2.288-.357 2.288-1.028 5.248-1.028 5.248-9.118 12.244l-17.897 15.692 12.641-1.948c6.35-1.003 13.512-1.757 20.409-2.42 27.671-2.86 56.195-5.77 56.319-26.693.025-19.198-47.739-51.776-76.165-69.449-45.964-28.614-126.787-70.02-148.083-59.741zm144.097 65.985c53.617 33.299 72.658 54.819 72.683 63.191-.066 14.291-25.267 16.778-49.671 19.323-2.827.249-5.662.58-8.596.887 8.472-7.32 9.268-8.166 10.669-15.634l.447-2.388c.099-.381.2-.912.191-1.542-.008-3.581-3.283-11.15-31.16-29.876-14.971-10.088-33.233-20.698-48.817-28.482-28.035-13.935-32.254-11.224-34.269-9.939l-.149.099-.132.149c-2.338 1.915-3.266 4.119-3.249 6.54.025 4.509 3.406 9.533 6.101 13.554 1.824 2.693 4.759 7.087 4.75 8.977.008.141-.033.298-.05.39-.091.166-.447.423-.853.663-49.339-14.631-91.906-18.602-118.946-19.356-66.118-1.79-124.733 12.053-174.586 41.191 1.964-2.081 4.427-4.444 7.494-7.03 41.456-35.247 128.272-68.115 236.865-44.954l.34.025.398-.017c1.99-.008 3.83-.962 5.023-2.545 1.07-1.484 1.318-3.225.762-4.957l.133.531c-1.269-7.195-6.474-14.183-11.456-20.939-4.842-6.507-9.865-13.371-9.873-18.751-.025-.48-.017-.945.058-1.343.423-2.603 2.155-4.907 5.289-7.17 14.023-6.25 79.469 21.386 140.604 59.403z"
              ></path>
            </g>
          </g>
        </g>
      </g>
    </svg>