<?xml version="1.0" encoding="UTF-8" standalone="no"?><!DOCTYPE svg PUBLIC "-//W3C//DTD SVG 1.1//EN" "http://www.w3.org/Graphics/SVG/1.1/DTD/svg11.dtd"><svg width="100%" height="100%" viewBox="0 0 1042 1042" version="1.1" xmlns="http://www.w3.org/2000/svg" xmlns:xlink="http://www.w3.org/1999/xlink" xml:space="preserve" xmlns:serif="http://www.serif.com/" style="fill-rule:evenodd;clip-rule:evenodd;stroke-linejoin:round;stroke-miterlimit:2;"><clipPath id="_clip1"><rect id="retard-penis.svg" serif:id="retard penis.svg" x="0" y="120.762" width="1041.67" height="800.142"/></clipPath><g clip-path="url(#_clip1)"><g><g><path d="M298.463,286.281l1.607,0.018l64.653,199.872l-130.721,0.441l64.461,-200.331Zm-288.355,413.928l153.956,-0.536l35.811,-102.491l200.848,-0.633l35.984,102.263l156.426,-0.515l-217.904,-570.664l-152.446,0.499l-212.675,572.077Z" style="fill:#0053a5;"/><g><path d="M293.352,279.428l-68.865,214.132l149.862,-0.48l-69.19,-213.673l-11.807,0.021Zm5.97,27.198c9.169,28.346 51.066,157.805 55.829,172.695c-14.985,0.018 -96.329,0.268 -111.565,0.344c4.865,-14.948 46.628,-144.637 55.736,-173.039Z" style="fill:#fff;"/><path d="M217.865,121.298l-217.865,585.955l169.06,-0.554c0,-0 32.805,-94.168 35.869,-102.646c9.108,0 181.69,-0.556 190.819,-0.632c3.101,8.517 35.984,102.435 35.984,102.435l171.547,-0.538l-223.303,-584.556l-162.111,0.536Zm152.504,13.301c3.368,8.67 205.863,538.854 212.735,556.787c-16.977,0 -132.638,0.402 -141.497,0.402c-2.93,-8.439 -35.945,-102.281 -35.945,-102.281l-210.726,0.728c-0,-0 -32.823,94.146 -35.772,102.472c-8.727,0.058 -122.127,0.423 -139.199,0.517c6.735,-17.954 204.409,-549.532 207.568,-558.147c8.84,-0.058 134.087,-0.42 142.836,-0.478Z" style="fill:#fff;"/></g><g><g><g><path d="M100.789,864.233l0.229,0.019l8.727,26.873l-17.589,0.057l8.633,-26.949Zm-38.796,55.755l20.806,-0.116l4.765,-13.723l26.968,-0.037l4.881,13.663l21.036,-0.036l-29.304,-76.75l-20.575,0.037l-28.577,76.962Z" style="fill:#1156a3;"/></g><g><path d="M197.309,842.701l-66.299,0.212l0.021,17.187l23.119,-0.057l0.249,59.58l20.21,-0.018l-0.248,-59.62l23.043,-0.058l-0.095,-17.226Z" style="fill:#1156a3;"/></g><g><path d="M206.61,919.526l56.234,-0.228l-0.039,-17.245l-36.118,0.152l-0.265,-59.636l-20.193,0.095l0.381,76.862Z" style="fill:#1156a3;"/></g><g><path d="M303.705,863.603l0.307,0.039l8.667,26.873l-17.607,0.037l8.633,-26.949Zm-38.833,55.695l20.784,-0.077l4.786,-13.724l27.102,-0.134l4.784,13.724l21.149,-0.076l-29.436,-76.691l-20.537,0.057l-28.632,76.921Z" style="fill:#1156a3;"/></g><g><path d="M348.97,919.011l19.025,-0.018l-0.228,-47.926l0.247,0.037l27.138,47.792l20.808,-0.076l-0.347,-76.826l-19.062,0.076l0.231,47.295l-0.231,0l-27.101,-47.237l-20.806,0.076l0.326,76.807Z" style="fill:#1156a3;"/></g><g><path d="M490.698,841.745l-66.452,0.249l0.076,17.13l23.161,-0.097l0.286,59.677l20.228,-0.076l-0.325,-59.601l23.104,-0.113l-0.078,-17.169Z" style="fill:#1156a3;"/></g><g><path d="M495.426,892.789c0.077,19.619 15.828,27.312 33.724,27.254c17.072,-0.076 33.608,-6.411 33.492,-25.875c-0.018,-13.856 -11.253,-18.988 -22.506,-22.05c-11.196,-3.177 -22.431,-4.096 -22.507,-10.182c0.018,-4.92 5.474,-6.509 9.741,-6.49c6.259,-0.077 12.823,2.239 12.461,9.244l20.249,-0.076c-0.174,-17.342 -15.675,-24.594 -31.122,-24.575c-14.603,0.057 -31.447,6.564 -31.389,23.37c0.058,14.086 11.637,18.986 22.796,22.126c11.08,3.117 22.183,4.267 22.22,11.177c-0.018,5.53 -6.162,7.733 -12.403,7.733c-8.42,0.039 -14.202,-2.873 -14.583,-11.716l-20.173,0.06Z" style="fill:#1156a3;"/></g></g><g><g><path d="M569.188,879.85c0.136,22.318 13.916,39.983 38.374,39.925c24.441,-0.076 38.031,-17.817 37.955,-40.153c-0.097,-22.278 -13.858,-39.904 -38.281,-39.867c-24.534,0.076 -38.124,17.819 -38.048,40.095Zm20.173,-0.055c-0.113,-11.406 4.844,-22.795 17.935,-22.872c12.9,-0.057 18.03,11.351 18.067,22.699c0.039,11.466 -4.936,22.892 -17.857,22.948c-13.033,-0.019 -18.106,-11.388 -18.145,-22.775Z" style="fill:#e4222f;"/></g><g><path d="M656.637,918.016l56.385,-0.192l-0.134,-17.226l-36.079,0.115l-0.265,-59.562l-20.233,0l0.326,76.865Z" style="fill:#e4222f;"/></g><g><path d="M722.975,917.767l20.249,-0.039l-0.402,-76.826l-20.193,0.076l0.346,76.789Z" style="fill:#e4222f;"/></g><g><path d="M787.991,862.033l0.249,0.018l8.707,26.834l-17.55,0.076l8.594,-26.928Zm-38.757,55.695l20.669,-0.134l4.881,-13.761l27.102,-0.021l4.707,13.724l21.207,-0.076l-29.435,-76.673l-20.499,-0.019l-28.632,76.96Z" style="fill:#e4222f;"/></g></g></g><g><path d="M722.38,832.616l18.854,-0.058l7.388,-20.057l-21.685,-0.021l-4.557,20.136Z" style="fill:#e4222f;"/></g><path d="M478.946,413.04c0.785,165.595 103.929,297.332 285.33,296.681c181.559,-0.614 283.419,-132.961 282.671,-298.556c-0.746,-165.689 -103.888,-297.447 -285.425,-296.815c-181.422,0.612 -283.361,133.001 -282.576,298.69Zm150.111,-0.496c-0.402,-84.923 36.423,-169.94 133.058,-170.208c96.864,-0.344 134.321,84.387 134.702,169.289c0.402,84.865 -36.27,169.767 -133.116,170.016c-96.672,0.344 -134.242,-84.369 -134.644,-169.097Z" style="fill:#ed1b2e;"/><g><path d="M546.718,197.204c-48.461,54.453 -75.082,131.124 -74.68,215.855c0.383,84.691 27.695,161.212 76.652,215.26c52.672,57.955 127.295,88.597 215.646,88.35c88.405,-0.328 162.838,-31.429 214.841,-89.862c48.556,-54.337 75.158,-130.991 74.777,-215.644c-0.344,-84.789 -27.715,-161.231 -76.804,-215.337c-52.522,-58.087 -127.224,-88.633 -215.665,-88.271c-88.31,0.231 -162.63,31.216 -214.767,89.649Zm12.346,421.834c-46.757,-51.562 -72.633,-124.693 -73.035,-205.998c-0.383,-81.362 24.862,-154.761 71.16,-206.727c49.38,-55.295 120.101,-84.713 204.372,-85.038c84.424,-0.25 155.316,28.787 205.326,83.717c46.759,51.599 72.711,124.809 73.094,206.189c0.344,81.326 -24.938,154.649 -71.178,206.497c-49.495,55.447 -120.119,84.749 -204.543,85.017c-84.311,0.31 -155.281,-28.554 -205.196,-83.657Z" style="fill:#fff;"/><path d="M622.073,412.581c0.402,85.4 37.838,176.351 141.67,175.968c103.89,-0.265 140.541,-91.524 140.119,-176.885c-0.365,-85.403 -37.896,-176.504 -141.768,-176.199c-103.811,0.364 -140.407,91.736 -140.021,177.116Zm14.029,-0.037c-0.344,-78.721 32.575,-162.898 126.052,-163.224c93.688,-0.286 127.335,83.718 127.737,162.344c0.344,78.529 -32.556,162.722 -126.245,163.106c-93.496,0.247 -127.164,-83.718 -127.544,-162.226Z" style="fill:#fff;"/></g><path d="M871.881,920.905c43.809,-39.044 38.873,-30.355 43.906,-55.333c6.202,-31.045 -227.72,-166.857 -250.153,-152.485c-21.073,16.92 44.825,60.137 10.739,71.966c-78.837,-23.618 -421.316,-119.219 -703.969,67.179c-3.405,-35.963 224.64,-232.601 591.467,-154.282c3.313,0 6.296,-3.082 5.206,-6.143c-7.333,-41.094 -82.108,-85.745 -32.843,-120.272c67.178,-32.442 505.7,213.73 505.435,290.671c-0.157,51.486 -99.626,47.657 -169.788,58.699Z" style="fill:#ffd521;"/><g><path d="M532.613,563.821l-0.727,0.305l-0.402,0.459c-11.542,7.904 -18.374,17.495 -20.02,28.173c-0.249,2.048 -0.499,4.038 -0.46,5.913c0.114,18.261 13.399,36.06 26.238,53.515c9.132,12.154 18.241,24.747 22.145,36.173c-123.622,-25.358 -242.573,-22.698 -353.602,8.077c-114.912,32.001 -181.747,83.352 -205.173,103.735c-14.354,12.708 -38.297,36.347 -36.824,52.843l1.205,14.297l12.057,-7.887c118.399,-78.128 260.833,-115.469 423.595,-111.048c62.012,1.704 159.931,10.833 273.216,44.922l2.738,0.803l2.623,-0.919c7.809,-2.66 12.766,-7.215 14.756,-13.283c0.651,-2.029 0.956,-4.019 0.919,-6.086c-0.018,-9.799 -6.908,-20.288 -13.685,-30.394c-4.899,-7.1 -11.062,-16.441 -11.101,-21.168c0,-0.706 0.136,-1.302 0.365,-1.759c17.668,-1.473 116.328,48.175 186.072,97.649c47.217,33.322 50.567,44.748 50.682,45.896c-0.097,0.688 -0.824,5.283 -0.824,5.283c-2.374,12.117 -2.374,12.117 -21.052,28.27l-41.322,36.23l29.186,-4.497c14.662,-2.316 31.198,-4.057 47.122,-5.588c63.889,-6.603 129.747,-13.322 130.033,-61.631c0.058,-44.325 -110.223,-119.544 -175.855,-160.349c-106.125,-66.066 -292.735,-161.667 -341.905,-137.934Zm332.702,152.351c123.795,76.883 167.758,126.57 167.816,145.9c-0.153,32.996 -58.339,38.738 -114.684,44.614c-6.527,0.575 -13.073,1.34 -19.847,2.048c19.56,-16.901 21.398,-18.854 24.633,-36.096l1.032,-5.514c0.229,-0.88 0.462,-2.106 0.441,-3.56c-0.018,-8.268 -7.58,-25.744 -71.944,-68.98c-34.567,-23.292 -76.731,-47.789 -112.713,-65.762c-64.729,-32.174 -74.47,-25.914 -79.122,-22.947l-0.344,0.228l-0.305,0.344c-5.398,4.422 -7.541,9.51 -7.502,15.1c0.058,10.411 7.864,22.011 14.087,31.295c4.211,6.217 10.988,16.363 10.967,20.726c0.018,0.326 -0.076,0.688 -0.116,0.901c-0.21,0.383 -1.032,0.976 -1.969,1.531c-113.918,-33.782 -212.199,-42.95 -274.631,-44.691c-152.658,-4.133 -287.993,27.829 -403.097,95.105c4.534,-4.805 10.221,-10.261 17.302,-16.232c95.717,-81.38 296.164,-157.268 546.892,-103.793l0.785,0.058l0.919,-0.039c4.594,-0.019 8.843,-2.221 11.597,-5.876c2.471,-3.427 3.043,-7.446 1.759,-11.445l0.308,1.226c-2.93,-16.613 -14.948,-32.747 -26.451,-48.346c-11.18,-15.024 -22.777,-30.872 -22.795,-43.293c-0.058,-1.109 -0.04,-2.182 0.133,-3.101c0.977,-6.01 4.976,-11.33 12.212,-16.555c32.377,-14.43 183.484,49.378 324.637,137.154Z" style="fill:#fff;"/></g></g></g></g><g id="retard-penis.svg1" serif:id="retard penis.svg"></g></svg>